<mxfile host="app.diagrams.net" agent="Mozilla/5.0 (Windows NT 10.0; Win64; x64) AppleWebKit/537.36 (KHTML, like Gecko) Chrome/131.0.0.0 Safari/537.36" version="26.0.4">
  <diagram id="C5RBs43oDa-KdzZeNtuy" name="Page-1">
    <mxGraphModel dx="1434" dy="728" grid="1" gridSize="10" guides="1" tooltips="1" connect="1" arrows="1" fold="1" page="1" pageScale="1" pageWidth="827" pageHeight="1169" math="0" shadow="0">
      <root>
        <mxCell id="WIyWlLk6GJQsqaUBKTNV-0" />
        <mxCell id="WIyWlLk6GJQsqaUBKTNV-1" parent="WIyWlLk6GJQsqaUBKTNV-0" />
        <mxCell id="l1_Gi6-Y9cpdIQT6sdVG-7" style="edgeStyle=orthogonalEdgeStyle;rounded=0;orthogonalLoop=1;jettySize=auto;html=1;exitX=0;exitY=0.75;exitDx=0;exitDy=0;entryX=0.25;entryY=0;entryDx=0;entryDy=0;" edge="1" parent="WIyWlLk6GJQsqaUBKTNV-1" source="l1_Gi6-Y9cpdIQT6sdVG-0" target="l1_Gi6-Y9cpdIQT6sdVG-1">
          <mxGeometry relative="1" as="geometry" />
        </mxCell>
        <mxCell id="l1_Gi6-Y9cpdIQT6sdVG-22" style="edgeStyle=orthogonalEdgeStyle;rounded=0;orthogonalLoop=1;jettySize=auto;html=1;exitX=0.5;exitY=1;exitDx=0;exitDy=0;" edge="1" parent="WIyWlLk6GJQsqaUBKTNV-1" source="l1_Gi6-Y9cpdIQT6sdVG-0" target="l1_Gi6-Y9cpdIQT6sdVG-21">
          <mxGeometry relative="1" as="geometry" />
        </mxCell>
        <mxCell id="l1_Gi6-Y9cpdIQT6sdVG-0" value="úvodní stránka" style="rounded=1;whiteSpace=wrap;html=1;" vertex="1" parent="WIyWlLk6GJQsqaUBKTNV-1">
          <mxGeometry x="354" width="120" height="60" as="geometry" />
        </mxCell>
        <mxCell id="l1_Gi6-Y9cpdIQT6sdVG-1" value="vytvořit účet" style="rounded=1;whiteSpace=wrap;html=1;" vertex="1" parent="WIyWlLk6GJQsqaUBKTNV-1">
          <mxGeometry x="190" y="100" width="90" height="60" as="geometry" />
        </mxCell>
        <mxCell id="l1_Gi6-Y9cpdIQT6sdVG-5" style="edgeStyle=orthogonalEdgeStyle;rounded=0;orthogonalLoop=1;jettySize=auto;html=1;exitX=1;exitY=0.5;exitDx=0;exitDy=0;entryX=0;entryY=0.5;entryDx=0;entryDy=0;" edge="1" parent="WIyWlLk6GJQsqaUBKTNV-1" source="l1_Gi6-Y9cpdIQT6sdVG-2" target="l1_Gi6-Y9cpdIQT6sdVG-1">
          <mxGeometry relative="1" as="geometry">
            <Array as="points">
              <mxPoint x="130" y="130" />
              <mxPoint x="130" y="80" />
              <mxPoint x="180" y="80" />
              <mxPoint x="180" y="130" />
            </Array>
          </mxGeometry>
        </mxCell>
        <mxCell id="l1_Gi6-Y9cpdIQT6sdVG-6" value="žádný účet" style="edgeLabel;html=1;align=center;verticalAlign=middle;resizable=0;points=[];" vertex="1" connectable="0" parent="l1_Gi6-Y9cpdIQT6sdVG-5">
          <mxGeometry x="-0.1556" relative="1" as="geometry">
            <mxPoint x="11" as="offset" />
          </mxGeometry>
        </mxCell>
        <mxCell id="l1_Gi6-Y9cpdIQT6sdVG-12" style="edgeStyle=orthogonalEdgeStyle;rounded=0;orthogonalLoop=1;jettySize=auto;html=1;exitX=0.75;exitY=1;exitDx=0;exitDy=0;entryX=0.25;entryY=0;entryDx=0;entryDy=0;" edge="1" parent="WIyWlLk6GJQsqaUBKTNV-1" source="l1_Gi6-Y9cpdIQT6sdVG-2" target="l1_Gi6-Y9cpdIQT6sdVG-9">
          <mxGeometry relative="1" as="geometry" />
        </mxCell>
        <mxCell id="l1_Gi6-Y9cpdIQT6sdVG-2" value="přihlásit" style="rounded=1;whiteSpace=wrap;html=1;" vertex="1" parent="WIyWlLk6GJQsqaUBKTNV-1">
          <mxGeometry x="20" y="100" width="100" height="60" as="geometry" />
        </mxCell>
        <mxCell id="l1_Gi6-Y9cpdIQT6sdVG-3" style="edgeStyle=orthogonalEdgeStyle;rounded=0;orthogonalLoop=1;jettySize=auto;html=1;exitX=0;exitY=0.75;exitDx=0;exitDy=0;entryX=0.133;entryY=0;entryDx=0;entryDy=0;entryPerimeter=0;" edge="1" parent="WIyWlLk6GJQsqaUBKTNV-1" source="l1_Gi6-Y9cpdIQT6sdVG-0" target="l1_Gi6-Y9cpdIQT6sdVG-2">
          <mxGeometry relative="1" as="geometry" />
        </mxCell>
        <mxCell id="l1_Gi6-Y9cpdIQT6sdVG-9" value="podnikatel" style="rounded=1;whiteSpace=wrap;html=1;" vertex="1" parent="WIyWlLk6GJQsqaUBKTNV-1">
          <mxGeometry x="185" y="240" width="100" height="60" as="geometry" />
        </mxCell>
        <mxCell id="l1_Gi6-Y9cpdIQT6sdVG-15" style="edgeStyle=orthogonalEdgeStyle;rounded=0;orthogonalLoop=1;jettySize=auto;html=1;entryX=0.25;entryY=1;entryDx=0;entryDy=0;exitX=0.5;exitY=1;exitDx=0;exitDy=0;" edge="1" parent="WIyWlLk6GJQsqaUBKTNV-1" source="l1_Gi6-Y9cpdIQT6sdVG-10" target="l1_Gi6-Y9cpdIQT6sdVG-0">
          <mxGeometry relative="1" as="geometry">
            <mxPoint x="70" y="320" as="sourcePoint" />
            <Array as="points">
              <mxPoint x="80" y="320" />
              <mxPoint x="384" y="320" />
            </Array>
          </mxGeometry>
        </mxCell>
        <mxCell id="l1_Gi6-Y9cpdIQT6sdVG-10" value="uživatel" style="rounded=1;whiteSpace=wrap;html=1;" vertex="1" parent="WIyWlLk6GJQsqaUBKTNV-1">
          <mxGeometry x="30" y="240" width="100" height="60" as="geometry" />
        </mxCell>
        <mxCell id="l1_Gi6-Y9cpdIQT6sdVG-11" style="edgeStyle=orthogonalEdgeStyle;rounded=0;orthogonalLoop=1;jettySize=auto;html=1;exitX=0.5;exitY=1;exitDx=0;exitDy=0;entryX=0.4;entryY=0.05;entryDx=0;entryDy=0;entryPerimeter=0;" edge="1" parent="WIyWlLk6GJQsqaUBKTNV-1" source="l1_Gi6-Y9cpdIQT6sdVG-2" target="l1_Gi6-Y9cpdIQT6sdVG-10">
          <mxGeometry relative="1" as="geometry" />
        </mxCell>
        <mxCell id="l1_Gi6-Y9cpdIQT6sdVG-13" style="edgeStyle=orthogonalEdgeStyle;rounded=0;orthogonalLoop=1;jettySize=auto;html=1;exitX=0.25;exitY=1;exitDx=0;exitDy=0;entryX=0.1;entryY=0;entryDx=0;entryDy=0;entryPerimeter=0;" edge="1" parent="WIyWlLk6GJQsqaUBKTNV-1" source="l1_Gi6-Y9cpdIQT6sdVG-1" target="l1_Gi6-Y9cpdIQT6sdVG-10">
          <mxGeometry relative="1" as="geometry">
            <Array as="points">
              <mxPoint x="213" y="190" />
              <mxPoint x="40" y="190" />
            </Array>
          </mxGeometry>
        </mxCell>
        <mxCell id="l1_Gi6-Y9cpdIQT6sdVG-14" style="edgeStyle=orthogonalEdgeStyle;rounded=0;orthogonalLoop=1;jettySize=auto;html=1;exitX=0.75;exitY=1;exitDx=0;exitDy=0;entryX=0.68;entryY=0;entryDx=0;entryDy=0;entryPerimeter=0;" edge="1" parent="WIyWlLk6GJQsqaUBKTNV-1" source="l1_Gi6-Y9cpdIQT6sdVG-1" target="l1_Gi6-Y9cpdIQT6sdVG-9">
          <mxGeometry relative="1" as="geometry">
            <Array as="points">
              <mxPoint x="253" y="160" />
            </Array>
          </mxGeometry>
        </mxCell>
        <mxCell id="l1_Gi6-Y9cpdIQT6sdVG-16" style="edgeStyle=orthogonalEdgeStyle;rounded=0;orthogonalLoop=1;jettySize=auto;html=1;exitX=1;exitY=0.5;exitDx=0;exitDy=0;entryX=0.108;entryY=0.983;entryDx=0;entryDy=0;entryPerimeter=0;" edge="1" parent="WIyWlLk6GJQsqaUBKTNV-1" source="l1_Gi6-Y9cpdIQT6sdVG-9" target="l1_Gi6-Y9cpdIQT6sdVG-0">
          <mxGeometry relative="1" as="geometry" />
        </mxCell>
        <mxCell id="l1_Gi6-Y9cpdIQT6sdVG-24" style="edgeStyle=orthogonalEdgeStyle;rounded=0;orthogonalLoop=1;jettySize=auto;html=1;exitX=0.5;exitY=0;exitDx=0;exitDy=0;entryX=1;entryY=0.5;entryDx=0;entryDy=0;" edge="1" parent="WIyWlLk6GJQsqaUBKTNV-1" source="l1_Gi6-Y9cpdIQT6sdVG-20" target="l1_Gi6-Y9cpdIQT6sdVG-21">
          <mxGeometry relative="1" as="geometry">
            <Array as="points">
              <mxPoint x="556" y="480" />
            </Array>
          </mxGeometry>
        </mxCell>
        <mxCell id="l1_Gi6-Y9cpdIQT6sdVG-20" value="zobrazit firmu" style="rhombus;whiteSpace=wrap;html=1;" vertex="1" parent="WIyWlLk6GJQsqaUBKTNV-1">
          <mxGeometry x="516" y="510" width="80" height="80" as="geometry" />
        </mxCell>
        <mxCell id="l1_Gi6-Y9cpdIQT6sdVG-23" style="edgeStyle=orthogonalEdgeStyle;rounded=0;orthogonalLoop=1;jettySize=auto;html=1;exitX=0.5;exitY=1;exitDx=0;exitDy=0;entryX=0;entryY=0.5;entryDx=0;entryDy=0;" edge="1" parent="WIyWlLk6GJQsqaUBKTNV-1" source="l1_Gi6-Y9cpdIQT6sdVG-21" target="l1_Gi6-Y9cpdIQT6sdVG-20">
          <mxGeometry relative="1" as="geometry">
            <Array as="points">
              <mxPoint x="490" y="550" />
            </Array>
          </mxGeometry>
        </mxCell>
        <mxCell id="l1_Gi6-Y9cpdIQT6sdVG-21" value="vyhledávač" style="rhombus;whiteSpace=wrap;html=1;" vertex="1" parent="WIyWlLk6GJQsqaUBKTNV-1">
          <mxGeometry x="450" y="440" width="80" height="80" as="geometry" />
        </mxCell>
        <mxCell id="l1_Gi6-Y9cpdIQT6sdVG-32" style="edgeStyle=orthogonalEdgeStyle;rounded=0;orthogonalLoop=1;jettySize=auto;html=1;exitX=0.5;exitY=1;exitDx=0;exitDy=0;entryX=0.5;entryY=0;entryDx=0;entryDy=0;" edge="1" parent="WIyWlLk6GJQsqaUBKTNV-1" source="l1_Gi6-Y9cpdIQT6sdVG-26" target="l1_Gi6-Y9cpdIQT6sdVG-31">
          <mxGeometry relative="1" as="geometry" />
        </mxCell>
        <mxCell id="l1_Gi6-Y9cpdIQT6sdVG-26" value="účet" style="rounded=1;whiteSpace=wrap;html=1;" vertex="1" parent="WIyWlLk6GJQsqaUBKTNV-1">
          <mxGeometry x="620" width="120" height="60" as="geometry" />
        </mxCell>
        <mxCell id="l1_Gi6-Y9cpdIQT6sdVG-27" value="" style="endArrow=classic;html=1;rounded=0;entryX=0;entryY=0.5;entryDx=0;entryDy=0;exitX=1;exitY=0.5;exitDx=0;exitDy=0;" edge="1" parent="WIyWlLk6GJQsqaUBKTNV-1" source="l1_Gi6-Y9cpdIQT6sdVG-0" target="l1_Gi6-Y9cpdIQT6sdVG-26">
          <mxGeometry width="50" height="50" relative="1" as="geometry">
            <mxPoint x="390" y="300" as="sourcePoint" />
            <mxPoint x="440" y="250" as="targetPoint" />
          </mxGeometry>
        </mxCell>
        <mxCell id="l1_Gi6-Y9cpdIQT6sdVG-28" value="přihlášen" style="edgeLabel;html=1;align=center;verticalAlign=middle;resizable=0;points=[];" vertex="1" connectable="0" parent="l1_Gi6-Y9cpdIQT6sdVG-27">
          <mxGeometry x="-0.2877" relative="1" as="geometry">
            <mxPoint as="offset" />
          </mxGeometry>
        </mxCell>
        <mxCell id="l1_Gi6-Y9cpdIQT6sdVG-33" style="edgeStyle=orthogonalEdgeStyle;rounded=0;orthogonalLoop=1;jettySize=auto;html=1;exitX=1;exitY=1;exitDx=0;exitDy=0;entryX=1;entryY=0.5;entryDx=0;entryDy=0;" edge="1" parent="WIyWlLk6GJQsqaUBKTNV-1" source="l1_Gi6-Y9cpdIQT6sdVG-31" target="l1_Gi6-Y9cpdIQT6sdVG-35">
          <mxGeometry relative="1" as="geometry">
            <mxPoint x="700" y="360" as="targetPoint" />
          </mxGeometry>
        </mxCell>
        <mxCell id="l1_Gi6-Y9cpdIQT6sdVG-36" style="edgeStyle=orthogonalEdgeStyle;rounded=0;orthogonalLoop=1;jettySize=auto;html=1;exitX=0;exitY=1;exitDx=0;exitDy=0;entryX=1;entryY=0.25;entryDx=0;entryDy=0;" edge="1" parent="WIyWlLk6GJQsqaUBKTNV-1" source="l1_Gi6-Y9cpdIQT6sdVG-31" target="l1_Gi6-Y9cpdIQT6sdVG-34">
          <mxGeometry relative="1" as="geometry">
            <Array as="points">
              <mxPoint x="660" y="280" />
              <mxPoint x="430" y="280" />
              <mxPoint x="430" y="395" />
            </Array>
          </mxGeometry>
        </mxCell>
        <mxCell id="l1_Gi6-Y9cpdIQT6sdVG-31" value="typ účtu" style="rhombus;whiteSpace=wrap;html=1;" vertex="1" parent="WIyWlLk6GJQsqaUBKTNV-1">
          <mxGeometry x="640" y="140" width="80" height="80" as="geometry" />
        </mxCell>
        <mxCell id="l1_Gi6-Y9cpdIQT6sdVG-34" value="uživatel" style="rounded=0;whiteSpace=wrap;html=1;" vertex="1" parent="WIyWlLk6GJQsqaUBKTNV-1">
          <mxGeometry x="100" y="380" width="120" height="60" as="geometry" />
        </mxCell>
        <mxCell id="l1_Gi6-Y9cpdIQT6sdVG-40" style="edgeStyle=orthogonalEdgeStyle;rounded=0;orthogonalLoop=1;jettySize=auto;html=1;exitX=0.5;exitY=1;exitDx=0;exitDy=0;entryX=0.5;entryY=0;entryDx=0;entryDy=0;" edge="1" parent="WIyWlLk6GJQsqaUBKTNV-1" source="l1_Gi6-Y9cpdIQT6sdVG-35" target="l1_Gi6-Y9cpdIQT6sdVG-39">
          <mxGeometry relative="1" as="geometry" />
        </mxCell>
        <mxCell id="l1_Gi6-Y9cpdIQT6sdVG-35" value="podnikatel" style="rounded=0;whiteSpace=wrap;html=1;" vertex="1" parent="WIyWlLk6GJQsqaUBKTNV-1">
          <mxGeometry x="670" y="370" width="120" height="60" as="geometry" />
        </mxCell>
        <mxCell id="l1_Gi6-Y9cpdIQT6sdVG-37" value="" style="endArrow=classic;html=1;rounded=0;exitX=1;exitY=0.25;exitDx=0;exitDy=0;entryX=0;entryY=0.5;entryDx=0;entryDy=0;" edge="1" parent="WIyWlLk6GJQsqaUBKTNV-1" target="l1_Gi6-Y9cpdIQT6sdVG-21">
          <mxGeometry width="50" height="50" relative="1" as="geometry">
            <mxPoint x="220" y="420" as="sourcePoint" />
            <mxPoint x="450" y="505" as="targetPoint" />
          </mxGeometry>
        </mxCell>
        <mxCell id="l1_Gi6-Y9cpdIQT6sdVG-38" value="" style="endArrow=classic;html=1;rounded=0;exitX=0;exitY=0.5;exitDx=0;exitDy=0;entryX=1;entryY=0;entryDx=0;entryDy=0;" edge="1" parent="WIyWlLk6GJQsqaUBKTNV-1" source="l1_Gi6-Y9cpdIQT6sdVG-35" target="l1_Gi6-Y9cpdIQT6sdVG-21">
          <mxGeometry width="50" height="50" relative="1" as="geometry">
            <mxPoint x="390" y="400" as="sourcePoint" />
            <mxPoint x="440" y="350" as="targetPoint" />
          </mxGeometry>
        </mxCell>
        <mxCell id="l1_Gi6-Y9cpdIQT6sdVG-41" style="edgeStyle=orthogonalEdgeStyle;rounded=0;orthogonalLoop=1;jettySize=auto;html=1;exitX=0.25;exitY=0;exitDx=0;exitDy=0;entryX=1;entryY=0.5;entryDx=0;entryDy=0;" edge="1" parent="WIyWlLk6GJQsqaUBKTNV-1" source="l1_Gi6-Y9cpdIQT6sdVG-39" target="l1_Gi6-Y9cpdIQT6sdVG-20">
          <mxGeometry relative="1" as="geometry">
            <Array as="points">
              <mxPoint x="700" y="480" />
              <mxPoint x="620" y="480" />
              <mxPoint x="620" y="550" />
            </Array>
          </mxGeometry>
        </mxCell>
        <mxCell id="l1_Gi6-Y9cpdIQT6sdVG-39" value="editor firmy" style="rounded=1;whiteSpace=wrap;html=1;arcSize=50;" vertex="1" parent="WIyWlLk6GJQsqaUBKTNV-1">
          <mxGeometry x="670" y="500" width="120" height="60" as="geometry" />
        </mxCell>
        <mxCell id="l1_Gi6-Y9cpdIQT6sdVG-42" value="" style="endArrow=classic;html=1;rounded=0;exitX=1;exitY=1;exitDx=0;exitDy=0;entryX=0.25;entryY=1;entryDx=0;entryDy=0;" edge="1" parent="WIyWlLk6GJQsqaUBKTNV-1" source="l1_Gi6-Y9cpdIQT6sdVG-20" target="l1_Gi6-Y9cpdIQT6sdVG-39">
          <mxGeometry width="50" height="50" relative="1" as="geometry">
            <mxPoint x="390" y="500" as="sourcePoint" />
            <mxPoint x="440" y="450" as="targetPoint" />
          </mxGeometry>
        </mxCell>
        <mxCell id="l1_Gi6-Y9cpdIQT6sdVG-43" value="pokud vlastní firmu" style="edgeLabel;html=1;align=center;verticalAlign=middle;resizable=0;points=[];" vertex="1" connectable="0" parent="l1_Gi6-Y9cpdIQT6sdVG-42">
          <mxGeometry x="-0.2577" relative="1" as="geometry">
            <mxPoint x="18" y="14" as="offset" />
          </mxGeometry>
        </mxCell>
        <mxCell id="l1_Gi6-Y9cpdIQT6sdVG-44" value="" style="endArrow=classic;html=1;rounded=0;exitX=0;exitY=1;exitDx=0;exitDy=0;" edge="1" parent="WIyWlLk6GJQsqaUBKTNV-1" source="l1_Gi6-Y9cpdIQT6sdVG-20" target="l1_Gi6-Y9cpdIQT6sdVG-45">
          <mxGeometry width="50" height="50" relative="1" as="geometry">
            <mxPoint x="390" y="400" as="sourcePoint" />
            <mxPoint x="290" y="570" as="targetPoint" />
          </mxGeometry>
        </mxCell>
        <mxCell id="l1_Gi6-Y9cpdIQT6sdVG-45" value="komentáře + hodnocení" style="rounded=1;whiteSpace=wrap;html=1;arcSize=50;" vertex="1" parent="WIyWlLk6GJQsqaUBKTNV-1">
          <mxGeometry x="190" y="560" width="120" height="60" as="geometry" />
        </mxCell>
      </root>
    </mxGraphModel>
  </diagram>
</mxfile>
